<svg version="1.0" xmlns="http://www.w3.org/2000/svg"
    width="609.000000pt" height="608.000000pt" viewBox="0 0 609.000000 608.000000"
    preserveAspectRatio="xMidYMid meet">

    <g transform="translate(0.000000,608.000000) scale(0.100000,-0.100000)"
        fill="#000000" stroke="none">
        <path
            d="M2165 6031 c-46 -20 -91 -69 -103 -109 -4 -15 -7 -378 -7 -807 0
        -712 1 -783 17 -810 9 -16 212 -224 450 -462 367 -366 439 -433 473 -442 56
        -15 84 -13 130 8 56 26 901 875 912 916 10 38 11 1560 1 1597 -12 40 -57 89
        -103 109 -38 18 -87 19 -885 19 -798 0 -847 -1 -885 -19z" />
        <path
            d="M215 4045 c-5 -2 -22 -6 -37 -9 -39 -9 -88 -54 -109 -101 -18 -38
        -19 -87 -19 -883 0 -921 -2 -882 58 -945 54 -57 57 -57 864 -57 517 0 753 3
        786 11 44 11 77 41 481 443 444 442 471 473 471 546 0 73 -27 104 -471 546
        -404 402 -437 432 -481 443 -33 8 -267 11 -790 10 -409 0 -747 -2 -753 -4z" />
        <path
            d="M4335 4038 c-34 -9 -102 -72 -468 -437 -235 -234 -436 -439 -447
        -456 -26 -43 -33 -95 -20 -146 10 -39 57 -90 448 -482 402 -403 441 -439 486
        -452 42 -13 167 -15 791 -15 810 0 813 0 867 57 60 63 58 25 58 943 0 910 2
        880 -53 938 -56 60 -11 57 -852 59 -502 1 -784 -2 -810 -9z" />
        <path
            d="M2990 2698 c-27 -7 -133 -108 -477 -451 l-441 -442 -12 -55 c-8 -40
        -10 -265 -8 -810 3 -824 0 -782 60 -837 58 -55 28 -53 938 -53 918 0 880 -2
        943 58 57 54 57 57 57 867 0 624 -2 749 -15 791 -13 45 -49 84 -452 486 -372
        370 -444 438 -478 447 -47 13 -68 13 -115 -1z" />
    </g>
</svg>